<svg width="256" height="256" viewBox="0 0 256 256" fill="none" xmlns="http://www.w3.org/2000/svg">
  <rect width="256" height="256" rx="56" fill="#0B1420"/>
  <rect x="18" y="18" width="220" height="220" rx="38" stroke="url(#stroke)" stroke-width="8" opacity="0.8"/>
  <circle cx="128" cy="128" r="68" stroke="url(#stroke)" stroke-width="10" opacity="0.4"/>
  <path d="M128 56C153.77 56 176.939 67.5298 192.595 85.7071L170.03 104.091C159.851 92.6702 144.981 85.4286 128 85.4286C97.3108 85.4286 72.4286 110.311 72.4286 141C72.4286 171.689 97.3108 196.571 128 196.571C144.999 196.571 159.885 189.314 170.063 177.871L192.628 196.254C176.966 214.462 153.786 226 128 226C81.0587 226 43 187.941 43 141C43 94.0587 81.0587 56 128 56Z" fill="url(#stroke)"/>
  <path d="M141.722 76C167.031 90.3499 184 117.543 184 148.7C184 154.597 183.392 160.352 182.236 165.907L154.786 157.589C155.451 154.728 155.8 151.748 155.8 148.7C155.8 128.233 140.416 110.727 120.001 108.069V76.7571C127.543 77.5373 134.843 80.0134 141.722 76Z" fill="url(#glow)" opacity="0.9"/>
  <path d="M119.877 82.6196C122.35 81.2728 125.199 80.5084 128.227 80.5084C137.807 80.5084 145.574 88.2758 145.574 97.8557C145.574 105.347 140.825 111.729 134.174 114.161V154.889H122.279V114.382C115.195 112.198 110.058 105.598 110.058 97.8557C110.058 91.3041 113.692 85.6012 119.877 82.6196Z" fill="white"/>
  <defs>
    <linearGradient id="stroke" x1="43" y1="56" x2="197" y2="226" gradientUnits="userSpaceOnUse">
      <stop stop-color="#F4D28F"/>
      <stop offset="0.5" stop-color="#D39A41"/>
      <stop offset="1" stop-color="#8A351E"/>
    </linearGradient>
    <linearGradient id="glow" x1="120.001" y1="76" x2="189.039" y2="174.246" gradientUnits="userSpaceOnUse">
      <stop stop-color="#FFE6B5"/>
      <stop offset="1" stop-color="#D1782D"/>
    </linearGradient>
  </defs>
</svg>
